<?xml version="1.0" encoding="UTF-8"?>
<svg version="1.1" xmlns="http://www.w3.org/2000/svg" width="768" height="768">
<path d="M0 0 C1.18826385 -0.00701431 2.37652771 -0.01402863 3.60079956 -0.02125549 C7.41229082 -0.03865523 11.22362673 -0.04510734 15.03515625 -0.046875 C16.98825211 -0.04788712 16.98825211 -0.04788712 18.98080444 -0.04891968 C37.88536684 -0.03333639 56.38192181 0.33982336 75.09765625 3.203125 C76.82846436 3.45255859 76.82846436 3.45255859 78.59423828 3.70703125 C160.81891188 15.7480682 249.62335363 52.23429446 301.09765625 120.203125 C302.02256872 121.37698714 302.94841763 122.55011179 303.875 123.72265625 C331.0799883 158.56755331 349.1733175 201.32528167 349.34765625 245.890625 C349.37859375 247.8387207 349.37859375 247.8387207 349.41015625 249.82617188 C349.45345774 260.60283069 348.51476675 271.21917031 342.09765625 280.203125 C337.71080213 284.62461217 334.0018395 286.35225435 327.78515625 286.515625 C326.86089844 286.55300781 325.93664062 286.59039062 324.984375 286.62890625 C317.68251926 285.55190723 313.0069088 279.20583995 308.16015625 274.140625 C269.99694381 235.24628488 208.23917242 219.58544688 155.19709778 219.01332092 C154.28643051 219.00892502 153.37576324 219.00452911 152.4375 219 C151.45774704 218.99298569 150.47799408 218.98597137 149.46855164 218.97874451 C146.32403915 218.96134195 143.17971513 218.95489204 140.03515625 218.953125 C138.95941345 218.95245026 137.88367065 218.95177551 136.77532959 218.95108032 C120.66893908 218.9671354 105.00380545 219.46542424 89.09765625 222.203125 C88.0730127 222.36941406 87.04836914 222.53570312 85.99267578 222.70703125 C51.15469952 228.44167755 11.21038778 237.57468044 -16.90234375 260.203125 C-17.60617187 260.74324219 -18.31 261.28335937 -19.03515625 261.83984375 C-29.51744293 270.32844061 -37.90546217 282.68887591 -39.90234375 296.203125 C-40.0192696 298.68032139 -40.07735673 301.16070208 -40.08984375 303.640625 C-40.10402344 304.91808594 -40.11820312 306.19554687 -40.1328125 307.51171875 C-39.89828972 311.26805822 -39.68860587 313.88018807 -37.90234375 317.203125 C-35.39758954 318.27127929 -33.54470569 318.75757997 -30.90234375 319.203125 C-30.04721191 319.37263672 -29.19208008 319.54214844 -28.31103516 319.71679688 C-26.34787414 320.10453208 -24.38263023 320.48182257 -22.41577148 320.8503418 C17.98193915 328.45784295 54.20054554 345.28235752 86.09765625 371.203125 C86.88390381 371.83492676 86.88390381 371.83492676 87.68603516 372.47949219 C102.82079194 384.72426374 117.35285085 398.65153185 129.09765625 414.203125 C130.10508289 415.4844019 131.11435685 416.76422744 132.125 418.04296875 C192.60031053 495.09272942 210.1656532 595.02029362 199.28515625 690.58984375 C197.30293552 706.72484328 194.19029803 722.47545282 190.09765625 738.203125 C189.88496094 739.04311035 189.67226563 739.8830957 189.453125 740.74853516 C187.12586744 749.77791912 184.71711757 758.13305081 176.36328125 763.26953125 C163.30747422 769.04421513 145.7320814 768.34863598 131.6953125 768.40625 C130.54733688 768.41326431 129.39936127 768.42027863 128.21659851 768.42750549 C124.53107742 768.4449177 120.84571697 768.45135799 117.16015625 768.453125 C115.9016687 768.45379974 114.64318115 768.45447449 113.34655762 768.45516968 C95.06161484 768.43957217 77.18634715 768.07991448 59.09765625 765.203125 C57.96763184 765.03151855 56.83760742 764.85991211 55.67333984 764.68310547 C-28.44304834 751.67325911 -110.86244185 714.01720663 -175.90234375 659.203125 C-176.42473633 658.76564941 -176.94712891 658.32817383 -177.48535156 657.87744141 C-193.19262633 644.702564 -208.90568869 630.81756516 -222.2109375 615.171875 C-224.14102217 612.92530993 -226.14652514 610.75728596 -228.15234375 608.578125 C-233.25307214 602.92315787 -237.91360078 596.96293968 -242.56005859 590.93505859 C-243.79312743 589.34404544 -245.0441648 587.76700098 -246.296875 586.19140625 C-258.72708795 570.4217331 -269.77458828 553.52951087 -279.90234375 536.203125 C-280.30727051 535.51428223 -280.71219727 534.82543945 -281.12939453 534.11572266 C-305.44016267 492.46385976 -321.58618746 446.7599822 -329.08984375 399.140625 C-329.24485352 398.1614209 -329.39986328 397.1822168 -329.55957031 396.17333984 C-332.37218553 377.31533693 -333.27955611 358.6293399 -333.21484375 339.578125 C-333.2126886 338.4332663 -333.21053345 337.28840759 -333.20831299 336.1088562 C-333.15758845 319.30598735 -332.85251305 302.7892818 -329.90234375 286.203125 C-329.69834961 285.04490234 -329.49435547 283.88667969 -329.28417969 282.69335938 C-319.6230121 229.50771772 -298.48925071 175.98323176 -260.90234375 136.203125 C-259.73004697 134.85382936 -258.56318554 133.49978828 -257.40234375 132.140625 C-250.73033748 124.5198472 -243.51608345 117.75708561 -235.54980469 111.50439453 C-233.74000577 110.07490013 -231.95131537 108.62073742 -230.16015625 107.16796875 C-203.25589276 85.65169437 -170.95398488 71.75080924 -136.68359375 67.6875 C-135.65359253 67.5632666 -135.65359253 67.5632666 -134.6027832 67.43652344 C-132.70842085 67.2168739 -130.81126901 67.02167635 -128.9140625 66.828125 C-125.63485166 66.14761432 -124.74083176 65.93283128 -122.90234375 63.203125 C-121.77252579 60.73468727 -120.72647408 58.2809192 -119.71484375 55.765625 C-111.60916828 36.54012509 -98.6115567 22.55452164 -80.15234375 12.953125 C-79.55800537 12.63585449 -78.96366699 12.31858398 -78.35131836 11.99169922 C-66.85349213 6.28104717 -53.87609283 4.50262875 -41.27734375 3.015625 C-39.97539062 2.85126953 -38.6734375 2.68691406 -37.33203125 2.51757812 C-24.89205525 0.98124109 -12.54057101 0.04982532 0 0 Z " fill="#141514" transform="translate(391.90234375,-0.203125)"/>
<path d="M0 0 C0.49628906 1.05058594 0.99257813 2.10117188 1.50390625 3.18359375 C5.30600658 11.09913265 9.03274875 18.46326004 15 25 C16.05574219 26.175625 16.05574219 26.175625 17.1328125 27.375 C24.56424865 35.22338141 33.98167475 43.56978582 44 48 C43.45321716 52.07209328 42.24091739 54.3868074 39.75 57.625 C29.89634779 71.29492325 27.48769309 85.66316079 27.875 102.25 C27.91809904 104.83847761 27.95738726 107.42702252 27.9921875 110.015625 C28.01651855 111.14258789 28.04084961 112.26955078 28.06591797 113.43066406 C28 116 28 116 27 117 C24.90990914 117.19125014 22.81459884 117.32581257 20.71875 117.4375 C5.16262328 118.44936621 -8.01497686 119.58430236 -21 129 C-21.5779834 129.39638672 -22.1559668 129.79277344 -22.75146484 130.20117188 C-51.46494917 149.95436244 -68.29496814 181.00221201 -75.2734375 214.65625 C-77.03935136 224.39413237 -77.19401855 234.19081122 -77.1875 244.0625 C-77.1862915 245.97579102 -77.1862915 245.97579102 -77.18505859 247.92773438 C-77.12161853 257.75472539 -76.45753997 267.28963234 -75 277 C-74.80722197 278.3255107 -74.61451274 279.65103141 -74.421875 280.9765625 C-73.9703786 283.98868848 -73.49898983 286.99544421 -73 290 C-80.47571406 290.56184907 -85.45557272 289.56531942 -92 286 C-92.85489014 285.54874756 -92.85489014 285.54874756 -93.72705078 285.08837891 C-126.52693821 267.732649 -152.7622669 241.97218992 -169.94140625 208.9765625 C-170.84703613 207.0564657 -170.84703613 207.0564657 -172 206 C-173.80206419 195.10821038 -174.32226324 184.23849176 -174.26074219 173.21557617 C-174.24998568 170.93446405 -174.26074172 168.65413608 -174.2734375 166.37304688 C-174.28325197 156.42631088 -173.49213303 146.83795037 -172 137 C-171.78899658 135.59004761 -171.78899658 135.59004761 -171.57373047 134.15161133 C-165.25488722 94.46694975 -148.71434122 51.45246429 -115.35058594 26.78027344 C-107.01994122 20.80522157 -98.53690242 15.85070084 -89 12 C-88.25878906 11.69578125 -87.51757812 11.3915625 -86.75390625 11.078125 C-75.02179832 6.73125703 -63.12957396 5.85761227 -50.75 5.625 C-39.30541019 5.40642257 -28.451943 3.99523242 -17.23730469 1.72705078 C-11.35574761 0.54121107 -6.00314853 -0.2855156 0 0 Z " fill="#294022" transform="translate(284,201)"/>
<path d="M0 0 C1.06467499 0.00432037 2.12934998 0.00864075 3.22628784 0.01309204 C19.54670659 0.09050947 35.5651577 0.63299291 51.6875 3.375 C52.65623047 3.5306543 53.62496094 3.68630859 54.62304688 3.84667969 C98.57270394 11.12320916 139.51680232 30.56585744 171.6875 61.375 C172.18636719 61.84663574 172.68523437 62.31827148 173.19921875 62.80419922 C180.73011278 69.95032071 187.2945368 77.5578757 193.53466797 85.85058594 C194.52901382 87.16543039 195.54568205 88.46333898 196.56640625 89.7578125 C199.9368443 94.06589121 202.38249428 98.41037229 204.6875 103.375 C204.0275 103.375 203.3675 103.375 202.6875 103.375 C205.23700956 108.19074028 207.74894982 111.54585399 211.6875 115.375 C211.6875 116.035 211.6875 116.695 211.6875 117.375 C212.12449219 117.808125 212.56148437 118.24125 213.01171875 118.6875 C222.84349786 128.58803281 226.95114583 149.05297231 228.6875 162.375 C224.63468536 160.69865331 221.61981231 157.86573698 218.375 155 C187.56477214 128.28162917 152.77525648 106.69591118 113.6875 94.375 C112.66479004 94.04516113 111.64208008 93.71532227 110.58837891 93.37548828 C107.25030558 92.30014578 103.90765096 91.24060759 100.5625 90.1875 C99.5506665 89.86620117 98.53883301 89.54490234 97.49633789 89.21386719 C47.74959817 73.89499216 -11.35446613 71.38744855 -62.3125 81.375 C-63.39547363 81.57818848 -64.47844727 81.78137695 -65.59423828 81.99072266 C-71.67660379 83.14354204 -77.72280651 84.41150045 -83.75683594 85.79443359 C-86.07573907 86.32121537 -88.39836241 86.81711715 -90.7265625 87.30078125 C-113.17349362 92.08450998 -134.82645428 100.41612877 -154.9296875 111.44140625 C-157.3125 112.375 -157.3125 112.375 -159.44140625 112.37109375 C-165.02945281 109.39624641 -167.83357358 98.96449984 -169.65625 93.0625 C-175.15059179 70.56186221 -175.15059179 70.56186221 -172.16796875 65.390625 C-170.24314835 63.3531102 -168.31050368 61.34145626 -166.3125 59.375 C-165.53648437 58.60027344 -164.76046875 57.82554688 -163.9609375 57.02734375 C-158.07466679 51.41671412 -151.83930601 46.77092866 -145.05883789 42.30541992 C-141.7520353 40.11758798 -138.67030357 37.88100863 -135.69921875 35.25 C-117.10316054 18.95820189 -85.73370282 11.62904892 -62.125 6.1875 C-61.11203857 5.9493457 -60.09907715 5.71119141 -59.05541992 5.46582031 C-39.53947613 1.1667957 -19.93657946 -0.15472651 0 0 Z " fill="#ED5E2B" transform="translate(470.3125,65.625)"/>
<path d="M0 0 C0.74443359 1.57587891 0.74443359 1.57587891 1.50390625 3.18359375 C5.30600658 11.09913265 9.03274875 18.46326004 15 25 C16.05574219 26.175625 16.05574219 26.175625 17.1328125 27.375 C24.56424865 35.22338141 33.98167475 43.56978582 44 48 C43.45321716 52.07209328 42.24091739 54.3868074 39.75 57.625 C29.89634779 71.29492325 27.48769309 85.66316079 27.875 102.25 C27.91809904 104.83847761 27.95738726 107.42702252 27.9921875 110.015625 C28.01651855 111.14258789 28.04084961 112.26955078 28.06591797 113.43066406 C28 116 28 116 27 117 C25.4139075 117.22808396 23.81892372 117.3950067 22.22265625 117.53515625 C21.23330078 117.62216797 20.24394531 117.70917969 19.22460938 117.79882812 C18.18111328 117.88583984 17.13761719 117.97285156 16.0625 118.0625 C14.54946289 118.19881836 14.54946289 118.19881836 13.00585938 118.33789062 C2.51141525 119.23664212 -6.66128589 119.23804835 -16.9375 116.75 C-17.90824463 116.51893555 -18.87898926 116.28787109 -19.87915039 116.04980469 C-38.96521271 111.40633769 -58.64150246 102.2136133 -69.5 84.9375 C-76.46482793 72.05565012 -79.42602467 58.64225926 -75.875 44.1875 C-70.29865415 26.88785963 -58.49978289 16.38407039 -43.01733398 7.91552734 C-36.2996012 4.61686961 -29.27022076 3.47791216 -21.9375 2.25 C-20.09575195 1.91935547 -20.09575195 1.91935547 -18.21679688 1.58203125 C-12.0632039 0.51501082 -6.24533557 -0.28068924 0 0 Z " fill="#FAFBFA" transform="translate(284,201)"/>
<path d="M0 0 C2.46840506 2.46840506 2.80168366 4.27261856 3.75 7.625 C12.2843766 36.09368692 26.14620194 62.28386841 44 86 C44.59844727 86.8046167 44.59844727 86.8046167 45.20898438 87.62548828 C51.75522089 96.41441694 58.74159705 104.79185509 66 113 C66.67506592 113.76401123 66.67506592 113.76401123 67.36376953 114.54345703 C74.22204582 122.24924374 81.47042917 129.56888677 88.75 136.875 C89.63743896 137.76711182 90.52487793 138.65922363 91.43920898 139.57836914 C96.46626191 144.59318506 101.59836206 149.39301913 107 154 C108.08315735 154.9492374 109.16523829 155.89970486 110.24609375 156.8515625 C118.57320635 164.11335352 127.21899041 170.86845209 136.04248047 177.51416016 C137.76243976 178.81968177 139.46582543 180.14197477 141.16015625 181.48046875 C160.41464033 196.6253001 181.0753455 210.27929188 201.96484375 223.0546875 C202.71580322 223.51504395 203.4667627 223.97540039 204.24047852 224.44970703 C205.61988441 225.29000393 207.00420705 226.12230556 208.39428711 226.94482422 C212.8908768 229.67263041 212.8908768 229.67263041 214 233 C207.15704594 231.80909415 200.75976371 230.09980387 194.25 227.6875 C192.8575708 227.17461426 192.8575708 227.17461426 191.43701172 226.65136719 C142.47281397 208.25483002 95.99110784 183.36392818 58 147 C57.41895508 146.45150391 56.83791016 145.90300781 56.23925781 145.33789062 C25.8255008 116.5080168 0.424267 74.37157702 -1.12939453 31.4230957 C-1.13052246 30.18648193 -1.13165039 28.94986816 -1.1328125 27.67578125 C-1.13376923 27.00709518 -1.13472595 26.33840912 -1.13571167 25.64945984 C-1.13638701 24.24864609 -1.13457821 22.84782908 -1.13037109 21.44702148 C-1.12498794 19.30770872 -1.13035104 17.16860344 -1.13671875 15.02929688 C-1.13605835 13.66145787 -1.13477798 12.293619 -1.1328125 10.92578125 C-1.13168457 9.69255127 -1.13055664 8.45932129 -1.12939453 7.1887207 C-1.02362155 4.58211527 -0.77538044 2.47128453 0 0 Z " fill="#284021" transform="translate(250,426)"/>
<path d="M0 0 C1.06467499 0.00432037 2.12934998 0.00864075 3.22628784 0.01309204 C19.54670659 0.09050947 35.5651577 0.63299291 51.6875 3.375 C52.65623047 3.5306543 53.62496094 3.68630859 54.62304688 3.84667969 C98.57270394 11.12320916 139.51680232 30.56585744 171.6875 61.375 C172.18636719 61.84663574 172.68523437 62.31827148 173.19921875 62.80419922 C180.73011278 69.95032071 187.2945368 77.5578757 193.53466797 85.85058594 C194.52901382 87.16543039 195.54568205 88.46333898 196.56640625 89.7578125 C199.9368443 94.06589121 202.38249428 98.41037229 204.6875 103.375 C204.0275 103.375 203.3675 103.375 202.6875 103.375 C202.3575 104.035 202.0275 104.695 201.6875 105.375 C201.171875 104.529375 200.65625 103.68375 200.125 102.8125 C197.86441725 99.37674065 195.07544571 96.68644516 192.078125 93.890625 C190.6875 92.375 190.6875 92.375 190.6875 90.375 C189.79502563 89.95879395 189.79502563 89.95879395 188.88452148 89.53417969 C186.83019256 88.45028662 185.28585272 87.33895882 183.53515625 85.828125 C182.93485596 85.32015381 182.33455566 84.81218262 181.71606445 84.28881836 C180.74286255 83.46522827 180.74286255 83.46522827 179.75 82.625 C115.10306957 29.18123788 29.05350749 12.70895154 -53.00227356 20.23352051 C-70.34120907 21.96308061 -87.19459419 25.39644062 -104.09033203 29.58935547 C-106.8956137 30.27335277 -109.7024693 30.9072757 -112.52734375 31.50390625 C-120.74968731 33.25562678 -128.07766813 35.70911531 -135.65234375 39.30078125 C-136.53019531 39.65527344 -137.40804688 40.00976562 -138.3125 40.375 C-138.9725 40.045 -139.6325 39.715 -140.3125 39.375 C-121.54488183 20.19939013 -87.55443223 12.04870723 -62.125 6.1875 C-61.11203857 5.9493457 -60.09907715 5.71119141 -59.05541992 5.46582031 C-39.53947613 1.1667957 -19.93657946 -0.15472651 0 0 Z " fill="#FBFAFA" transform="translate(470.3125,65.625)"/>
<path d="M0 0 C1.56482324 0.31390368 3.12994459 0.62632383 4.6953125 0.9375 C14.27652959 2.86705727 23.65368681 5.133594 33 8 C32.67 8.99 32.34 9.98 32 11 C25.92628623 11.11581234 19.93364102 10.9528037 13.875 10.5 C-43.92545494 6.5331642 -109.83945368 16.46267069 -160.6953125 45.13671875 C-163.62435986 46.23387039 -165.00618689 45.83473312 -168 45 C-170.20410156 43.72485352 -170.20410156 43.72485352 -172.390625 42.12890625 C-173.18210937 41.55462891 -173.97359375 40.98035156 -174.7890625 40.38867188 C-175.60117187 39.78603516 -176.41328125 39.18339844 -177.25 38.5625 C-178.07757813 37.96373047 -178.90515625 37.36496094 -179.7578125 36.74804688 C-185.85885989 32.28228022 -185.85885989 32.28228022 -187 30 C-131.76857269 -6.27582305 -63.76223346 -13.56088401 0 0 Z " fill="#EA5C2A" transform="translate(532,173)"/>
<path d="M0 0 C1.27167023 0.00415421 1.27167023 0.00415421 2.56903076 0.00839233 C15.69042071 0.05836364 28.69015359 0.54637301 41.74755859 1.91601562 C44.75838885 2.2312472 47.77068133 2.52730299 50.78399658 2.81770325 C54.14831061 3.14283003 57.51172721 3.47679392 60.875 3.8125 C62.78079834 4.00259644 62.78079834 4.00259644 64.72509766 4.1965332 C65.89733887 4.31859131 67.06958008 4.44064941 68.27734375 4.56640625 C69.32269287 4.67412354 70.36804199 4.78184082 71.44506836 4.89282227 C73.9375 5.25 73.9375 5.25 75.9375 6.25 C79.07604629 6.4815321 82.20735751 6.64409881 85.3515625 6.76757812 C89.00299074 6.95805617 91.81667294 7.27347619 94.9375 9.25 C94.9375 9.58 94.9375 9.91 94.9375 10.25 C93.90085205 10.23428955 93.90085205 10.23428955 92.84326172 10.21826172 C26.38702908 9.35689299 -39.82431505 20.62545332 -93.49047852 62.12353516 C-95.0625 63.25 -95.0625 63.25 -96.0625 63.25 C-97.56483491 48.31011398 -93.5069557 34.30649842 -84.75 22 C-75.11984741 11.16607833 -63.04027528 6.34829759 -49.0625 4.125 C-48.16144531 3.96902344 -47.26039063 3.81304687 -46.33203125 3.65234375 C-30.88179583 1.07375274 -15.65364989 -0.10125484 0 0 Z " fill="#EC5E2C" transform="translate(400.0625,33.75)"/>
<path d="M0 0 C0.84645081 0.00276947 1.69290161 0.00553894 2.56500244 0.00839233 C16.76417027 0.06256727 30.81912937 0.66245646 44.9375 2.25 C46.08138184 2.37842285 47.22526367 2.5068457 48.40380859 2.63916016 C55.58824023 3.45882126 62.76532752 4.32937902 69.9375 5.25 C69.9375 5.58 69.9375 5.91 69.9375 6.25 C68.11412109 6.34087891 68.11412109 6.34087891 66.25390625 6.43359375 C64.66925772 6.51798332 63.08462298 6.6026321 61.5 6.6875 C60.69755859 6.72681641 59.89511719 6.76613281 59.06835938 6.80664062 C55.18510439 6.6554296 55.18510439 6.6554296 51.9375 8.25 C49.71846572 8.37347081 47.49568959 8.43005321 45.2734375 8.4609375 C43.8422725 8.48660871 42.41112045 8.51300907 40.97998047 8.54003906 C39.83985504 8.55991882 39.83985504 8.55991882 38.67669678 8.5802002 C12.35324482 9.07901041 -13.33500281 11.3978027 -39.0625 17.25 C-40.73173502 17.61865179 -42.40100389 17.98715036 -44.0703125 18.35546875 C-48.08534141 19.26068601 -52.08501474 20.18878019 -56.0625 21.25 C-57.07703247 21.50656372 -57.07703247 21.50656372 -58.11206055 21.76831055 C-65.18075024 23.797997 -70.83595526 27.71277599 -76.875 31.8125 C-78.90119728 33.16968192 -80.92849615 34.52522107 -82.95703125 35.87890625 C-83.84237549 36.47775635 -84.72771973 37.07660645 -85.63989258 37.69360352 C-87.73671813 39.04070247 -89.80944109 40.19202767 -92.0625 41.25 C-91.42129928 31.41825567 -86.30176817 22.79658023 -79.0625 16.25 C-69.69624186 9.27780784 -60.56615803 6.06590618 -49.1875 4.1875 C-47.82238281 3.94676758 -47.82238281 3.94676758 -46.4296875 3.70117188 C-30.94789977 1.06799896 -15.69251904 -0.10155148 0 0 Z " fill="#F9F6F5" transform="translate(400.0625,33.75)"/>
<path d="M0 0 C5.12160315 1.9423767 8.95655537 5.10137296 11.37890625 10.04296875 C12.95739071 15.01668392 12.55305017 19.45728111 10.8125 24.3125 C8.01879676 28.45488756 4.56814732 31.05292082 0 33 C-4.82903514 33.68530862 -8.85236449 33.519684 -13.3125 31.5 C-18.21999987 26.93488384 -21.26288803 22.73508095 -21.5625 15.875 C-21.30731712 11.25335442 -20.10644351 8.52623318 -17 5 C-11.39669519 0.06375529 -7.39444232 -0.94052117 0 0 Z " fill="#F9F9F9" transform="translate(233,137)"/>
<path d="M0 0 C0.495 0.99 0.495 0.99 1 2 C0.07477539 2.01458252 -0.85044922 2.02916504 -1.80371094 2.04418945 C-41.72752389 2.17949756 -41.72752389 2.17949756 -78.703125 15.66796875 C-81.07007117 17.04063651 -83.4404587 18.04244111 -86 19 C-79.15676624 9.87568832 -69.65684581 4.5992472 -59 1 C-57.865625 0.60683594 -56.73125 0.21367187 -55.5625 -0.19140625 C-38.10495546 -5.41048467 -17.55199135 -4.73556202 0 0 Z " fill="#F3E3C9" transform="translate(371,340)"/>
<path d="M0 0 C0.99 0.33 1.98 0.66 3 1 C2.45321716 5.07209328 1.24091739 7.3868074 -1.25 10.625 C-11.10365221 24.29492325 -13.51230691 38.66316079 -13.125 55.25 C-13.08190096 57.83847761 -13.04261274 60.42702252 -13.0078125 63.015625 C-12.98348145 64.14258789 -12.95915039 65.26955078 -12.93408203 66.43066406 C-13 69 -13 69 -14 70 C-15.66617115 70.04063832 -17.33388095 70.042721 -19 70 C-19.7847865 42.49625146 -15.44513927 22.78158043 0 0 Z " fill="#F5E4CA" transform="translate(325,248)"/>
<path d="M0 0 C0 0.66 0 1.32 0 2 C2.97 2.33 5.94 2.66 9 3 C9 3.33 9 3.66 9 4 C8.16082031 4.11214844 8.16082031 4.11214844 7.3046875 4.2265625 C0.24919467 5.38357258 -5.65609455 7.86755693 -12.09375 10.85546875 C-13.0528125 11.23316406 -14.011875 11.61085938 -15 12 C-15.66 11.67 -16.32 11.34 -17 11 C-5.10393258 0 -5.10393258 0 0 0 Z " fill="#F7E0C7" transform="translate(347,94)"/>
<path d="M0 0 C1.921875 2.8203125 1.921875 2.8203125 3.75 6.125 C4.67039062 7.76855469 4.67039062 7.76855469 5.609375 9.4453125 C6.06828125 10.28835937 6.5271875 11.13140625 7 12 C6.01 12.495 6.01 12.495 5 13 C4.67 13.66 4.34 14.32 4 15 C3.484375 14.154375 2.96875 13.30875 2.4375 12.4375 C0.17691725 9.00174065 -2.61205429 6.31144516 -5.609375 3.515625 C-7 2 -7 2 -7 0 C-7.66 -0.33 -8.32 -0.66 -9 -1 C-5.17478633 -2.06255935 -3.31230841 -2.2583921 0 0 Z " fill="#FAE5CA" transform="translate(668,156)"/>
<path d="M0 0 C3.55007718 3.9050849 4.81819916 6.97734643 6 12 C0.25 7.375 0.25 7.375 -2 4 C-2 3.01 -2 2.02 -2 1 C-1.34 0.67 -0.68 0.34 0 0 Z " fill="#304224" transform="translate(675,168)"/>
<path d="M0 0 C1.09570312 0.00902344 2.19140625 0.01804688 3.3203125 0.02734375 C4.16335938 0.03894531 5.00640625 0.05054688 5.875 0.0625 C5.875 0.3925 5.875 0.7225 5.875 1.0625 C4.93527344 1.26166016 4.93527344 1.26166016 3.9765625 1.46484375 C2.75066406 1.72974609 2.75066406 1.72974609 1.5 2 C0.68789063 2.17402344 -0.12421875 2.34804688 -0.9609375 2.52734375 C-3.154463 2.98580693 -3.154463 2.98580693 -5.125 4.0625 C-7.12460012 4.102492 -9.12547242 4.10596799 -11.125 4.0625 C-7.43175139 0.20137645 -5.34502415 -0.05686196 0 0 Z " fill="#FCDFC4" transform="translate(347.125,51.9375)"/>
</svg>
